<svg xmlns="http://www.w3.org/2000/svg" xmlns:xlink="http://www.w3.org/1999/xlink" width="13022" height="3559" viewBox="0 0 13022 3559">
  <defs>
    <linearGradient id="linear-gradient" y1="0.5" x2="1" y2="0.5" gradientUnits="objectBoundingBox">
      <stop offset="0" stop-color="#319d3f"/>
      <stop offset="1" stop-color="#95c12b"/>
    </linearGradient>
  </defs>
  <g id="Group_2" data-name="Group 2" transform="translate(-3617 -4181)">
    <g id="Layer_x0020_1" transform="translate(3617 4181)">
      <rect id="Rectangle_1" data-name="Rectangle 1" width="13022" height="2628" fill="none"/>
      <path id="Path_1" data-name="Path 1" d="M13396.095,1603.744q0-411.3,598.51-411.3a1513.973,1513.973,0,0,1,280.934,26.47V1115.066c0-177.146-156.753-192.756-276.861-192.756h-345.4l286.362-277.6h59.036c4.071,0,8.821-.679,14.25-.679h31.215l29.857.679c369.148,15.611,551.01,175.109,551.01,462.208v925.094h-202.218l-123.5-123.527q-179.146,123.188-396.293,123.527-505.882,0-505.544-429.629ZM12285.934,154h344.042c294.5,7.466,489.937,63.121,637.188,342.074,21.036,45.474,36.644,95.021,46.145,148.639l2.035,277.6q-71.251,407.231-622.26,538.224c-114.681,27.149-282.97,51.583-434.972,57.691v418.77h0v95.021H11910V1217.553h257.183c101.109-4.072,213.754-14.253,321.648-36.651q370.507-67.193,450.579-258.592l-11.536-277.6c-86.18-147.961-318.934-179.182-546.259-183.933H11938.5L12258.112,154h27.821Zm1990.283,1301.1c-87.537-17.647-181.86-26.47-280.934-26.47-166.931,0-251.075,57.012-251.075,171.037,0,122.848,69.895,183.933,210.36,183.933q173.039,0,321.648-107.916Zm511.651-800.888h369.149l348.112,992.966,339.97-992.966h362.363L15635.418,2074.1q-152.682,375.671-487.222,534.152L14979.907,2370.7c154.038-67.193,266-177.824,335.9-329.179Z" transform="translate(-3828.08 -49.477)" fill="url(#linear-gradient)"/>
      <path id="Path_2" data-name="Path 2" d="M1648.883,1949.646q-243.272,92.645-553.723,92.306Q79.321,2041.952,80,1059.845,80,130.339,1095.16,130c206.289,0,390.864,31.221,553.723,92.306V538.589c-162.181-69.908-338.613-105.2-527.259-105.2q-678.922,0-678.583,626.458,0,679.058,678.583,678.719,283.987,0,527.259-105.2Zm523.187,79.41H1813.1L2613.827,142.9h375.935l817.692,1886.16H3431.52l-215.111-514.469H2590.077l119.43-302.709h380.006L2792.973,503.3l-620.9,1526.439Zm1866.1,0V142.9h362.363L5039.76,1574.314,5666.092,142.9h349.47v1886.16H5692.556V715.734L5180.905,2029.056h-297.9L4361.178,715.734V2029.056Zm2339.753-79.41V1633.363q283.987,104.862,641.26,105.2,433.615,0,433.614-289.813c0-141.174-88.894-211.082-266.683-211.082H6890.934q-579.171,0-578.832-527.365,0-580.3,823.8-580.3c211.04,0,411.222,31.221,599.867,92.306V538.589c-189.324-69.908-388.828-105.2-599.867-105.2-316.219,0-475.008,92.306-475.008,276.917,0,141.174,76.68,211.082,229.361,211.082h295.184q615.814,0,615.474,527.365,0,593.54-783.084,593.2-357.274,0-641.261-92.306Z" transform="translate(-25.713 -41.766)" fill="#162a75"/>
      <path id="Path_3" data-name="Path 3" d="M13321.808,886v2.036h363.721l-283.648,276.917h-77.357v.679h-375.936v-.679H11947l287.719-276.917h701.654l-.679-2.036Z" transform="translate(-3839.974 -284.655)" fill="#162a75"/>
      <g id="_803000544" transform="translate(9227.366 103.844)">
        <path id="Path_4" data-name="Path 4" d="M14320.507,153Zm0,0-308.078,292.528c-26.465-42.081-50.214-87.555-81.429-130.314Z" transform="translate(-13705.032 -153)" fill="#319d3f" fill-rule="evenodd"/>
        <path id="Path_5" data-name="Path 5" d="M14213.474,153Zm0,0h0l-389.5,162.214h0C13777.146,250.736,13712.681,191.687,13598,153Z" transform="translate(-13598 -153)" fill="#162a75" fill-rule="evenodd"/>
      </g>
      <path id="Path_6" data-name="Path 6" d="M18617,536.824V359h82.109c20.355,0,35.285,1.357,44.785,4.751s16.963,8.823,22.393,16.968a49.537,49.537,0,0,1,8.145,27.827c0,13.574-4.072,24.434-12.895,33.257-8.143,8.823-21.035,14.253-38,16.289,8.143,4.751,15.605,9.5,21.035,14.932s12.893,14.932,21.715,29.185l23.752,34.615h-46.145l-27.822-38.687c-10.178-13.574-16.963-22.4-20.355-25.791a30.67,30.67,0,0,0-11.535-7.466c-4.074-1.357-10.859-2.036-19.682-2.036h-8.141v73.98H18617Zm38.68-102.487h28.5c18.32,0,30.535-.679,34.605-2.036a20.944,20.944,0,0,0,10.855-7.466c2.715-3.394,4.072-8.145,4.072-13.574,0-6.108-2.035-10.859-5.428-14.253a23.679,23.679,0,0,0-14.928-6.787c-3.393-.679-12.893-.679-28.5-.679h-30.537v45.474Z" transform="translate(-5983.828 -115.34)" fill="#4e4a4b"/>
      <path id="_1" data-name="1" d="M18617,536.824V359h82.109c20.355,0,35.285,1.357,44.785,4.751s16.963,8.823,22.393,16.968a49.537,49.537,0,0,1,8.145,27.827c0,13.574-4.072,24.434-12.895,33.257-8.143,8.823-21.035,14.253-38,16.289,8.143,4.751,15.605,9.5,21.035,14.932s12.893,14.932,21.715,29.185l23.752,34.615h-46.145l-27.822-38.687c-10.178-13.574-16.963-22.4-20.355-25.791a30.67,30.67,0,0,0-11.535-7.466c-4.074-1.357-10.859-2.036-19.682-2.036h-8.141v73.98H18617Zm38.68-102.487h28.5c18.32,0,30.535-.679,34.605-2.036a20.944,20.944,0,0,0,10.855-7.466c2.715-3.394,4.072-8.145,4.072-13.574,0-6.108-2.035-10.859-5.428-14.253a23.679,23.679,0,0,0-14.928-6.787c-3.393-.679-12.893-.679-28.5-.679h-30.537v45.474Z" transform="translate(-5983.828 -115.34)" fill="none" stroke="#4e4a4b" stroke-width="7.903"/>
      <circle id="Ellipse_1" data-name="Ellipse 1" cx="212.5" cy="212.5" r="212.5" transform="translate(12507 120)" fill="none" stroke="#4e4a4b" stroke-width="70.243"/>
    </g>
    <text id="The_Payments_Edge" data-name="The Payments Edge" transform="translate(5704 7471)" fill="#162a75" font-size="1000" font-family="Calibri" letter-spacing="0.03em"><tspan x="0" y="0">The Payments Edge</tspan></text>
  </g>
</svg>
